# xmcd
#
# Track frame offsets:
#	150
#	17844
#	36776
#	49878
#	77197
#	96501
#	115502
#	136615
#	153939
#	175248
#	194848
#	223382
#	242818
#	261505
#	279085
#	298478
#	317099
#
# Disc length: 4605 seconds
#
# Revision: 1
# Processed by: cddbd v1.4PL0 Copyright (c) Steve Scherf et al.
# Submitted via: audiograbber 1.82.02
#
DISCID=0411fb11
DTITLE=Michel Sardou - MS cd 2
DYEAR=2003
DGENRE=Blues
TTITLE0=Je ne suis pas mort, je dors
TTITLE1=Verdun
TTITLE2=L'autre femme
TTITLE3=Les lacs du Connémara
TTITLE4=Il était là(le fauteuil
TTITLE5=Afrique adieu
TTITLE6=Vladimir Ilitch
TTITLE7=Les deux écoles
TTITLE8=Chanteuse de jazz
TTITLE9=1965
TTITLE10=Musulmanes
TTITLE11=L'acteur
TTITLE12=Le privilège
TTITLE13=Putain de temps
TTITLE14=Selon que vous serez
TTITLE15=Cette chanson-là
TTITLE16=Salut
EXTD=
EXTT0=
EXTT1=
EXTT2=
EXTT3=
EXTT4=
EXTT5=
EXTT6=
EXTT7=
EXTT8=
EXTT9=
EXTT10=
EXTT11=
EXTT12=
EXTT13=
EXTT14=
EXTT15=
EXTT16=
PLAYORDER=
